<svg width="229" height="211" viewBox="0 0 229 211" fill="none" xmlns="http://www.w3.org/2000/svg">
<path d="M193.006 72.5977L169.258 65.7454C167.774 65.3174 166.187 65.5183 164.845 66.3038C163.504 67.0894 162.518 68.3953 162.105 69.9345L142.175 144.218C141.83 145.503 141.988 146.867 142.614 148.017L151.855 164.99C153.176 167.415 156.178 168.25 158.561 166.854L174.767 157.365C175.925 156.686 176.777 155.562 177.13 154.246L197.046 80.0164C197.459 78.4771 197.265 76.8309 196.507 75.4397C195.75 74.0484 194.491 73.0262 193.006 72.5977ZM167.228 146.206C166.874 147.522 166.023 148.646 164.864 149.324L162.966 150.436C160.583 151.831 157.581 150.996 156.26 148.571L155.098 146.436C154.472 145.286 154.314 143.922 154.658 142.637L163.793 108.592C164.529 105.848 167.305 104.222 169.951 104.986L173.047 105.879C175.624 106.623 177.114 109.358 176.397 112.031L167.228 146.206ZM182.143 90.6136C181.407 93.3579 178.63 94.9836 175.984 94.2201L172.888 93.3268C170.311 92.5832 168.822 89.8476 169.539 87.1752L170.4 83.9648C171.136 81.2205 173.913 79.5947 176.559 80.3583L179.655 81.2516C182.232 81.9951 183.721 84.7308 183.004 87.4032L182.143 90.6136ZM153.192 -4.11567C151.871 -6.5409 148.869 -7.37575 146.486 -5.98037L119.701 9.70429C117.318 11.0997 116.456 14.1969 117.777 16.6221L118.708 18.3328C120.029 20.7581 123.031 21.5929 125.414 20.1975L128.962 18.12C132.787 15.8805 137.273 19.4372 136.107 23.7838L123.874 69.3784C123.138 72.1227 120.362 73.7484 117.715 72.9848L88.5504 64.5695C87.0661 64.1415 85.4786 64.3424 84.1371 65.1279C82.7956 65.9135 81.8098 67.2194 81.3966 68.7586L66.625 123.815C65.908 126.488 67.3975 129.223 69.9745 129.967L71.7087 130.467C74.355 131.231 77.1313 129.605 77.8676 126.861L89.692 82.7889C90.4283 80.0446 93.2046 78.4188 95.851 79.1824L125.016 87.5977C126.5 88.0257 128.088 87.8249 129.429 87.0393C130.771 86.2538 131.757 84.9478 132.17 83.4087L147.216 27.3279C148.394 22.9369 154.144 22.1418 156.285 26.0739L158.288 29.7532C159.609 32.1785 162.611 33.0133 164.994 31.618L166.483 30.746C168.866 29.3506 169.727 26.2534 168.407 23.8282L153.192 -4.11567Z" fill="black"/>
<path d="M193.006 72.5977L169.258 65.7454C167.774 65.3174 166.187 65.5183 164.845 66.3038C163.504 67.0894 162.518 68.3953 162.105 69.9345L142.175 144.218C141.83 145.503 141.988 146.867 142.614 148.017L151.855 164.99C153.176 167.415 156.178 168.25 158.561 166.854L174.767 157.365C175.925 156.686 176.777 155.562 177.13 154.246L197.046 80.0164C197.459 78.4771 197.265 76.8309 196.507 75.4397C195.75 74.0484 194.491 73.0262 193.006 72.5977ZM167.228 146.206C166.874 147.522 166.023 148.646 164.864 149.324L162.966 150.436C160.583 151.831 157.581 150.996 156.26 148.571L155.098 146.436C154.472 145.286 154.314 143.922 154.658 142.637L163.793 108.592C164.529 105.848 167.305 104.222 169.951 104.986L173.047 105.879C175.624 106.623 177.114 109.358 176.397 112.031L167.228 146.206ZM182.143 90.6136C181.407 93.3579 178.63 94.9836 175.984 94.2201L172.888 93.3268C170.311 92.5832 168.822 89.8476 169.539 87.1752L170.4 83.9648C171.136 81.2205 173.913 79.5947 176.559 80.3583L179.655 81.2516C182.232 81.9951 183.721 84.7308 183.004 87.4032L182.143 90.6136ZM153.192 -4.11567C151.871 -6.5409 148.869 -7.37575 146.486 -5.98037L119.701 9.70429C117.318 11.0997 116.456 14.1969 117.777 16.6221L118.708 18.3328C120.029 20.7581 123.031 21.5929 125.414 20.1975L128.962 18.12C132.787 15.8805 137.273 19.4372 136.107 23.7838L123.874 69.3784C123.138 72.1227 120.362 73.7484 117.715 72.9848L88.5504 64.5695C87.0661 64.1415 85.4786 64.3424 84.1371 65.1279C82.7956 65.9135 81.8098 67.2194 81.3966 68.7586L66.625 123.815C65.908 126.488 67.3975 129.223 69.9745 129.967L71.7087 130.467C74.355 131.231 77.1313 129.605 77.8676 126.861L89.692 82.7889C90.4283 80.0446 93.2046 78.4188 95.851 79.1824L125.016 87.5977C126.5 88.0257 128.088 87.8249 129.429 87.0393C130.771 86.2538 131.757 84.9478 132.17 83.4087L147.216 27.3279C148.394 22.9369 154.144 22.1418 156.285 26.0739L158.288 29.7532C159.609 32.1785 162.611 33.0133 164.994 31.618L166.483 30.746C168.866 29.3506 169.727 26.2534 168.407 23.8282L153.192 -4.11567Z" fill="url(#paint0_linear_171_68)"/>
<path d="M15.9381 62.4172C14.6176 59.992 11.6153 59.1571 9.23238 60.5525L7.74328 61.4245C5.36034 62.8199 4.49907 65.9171 5.81959 68.3423L77.7037 200.363C79.219 203.146 81.7383 205.191 84.7073 206.048C87.6764 206.904 90.852 206.503 93.5356 204.931L129.695 183.758C132.078 182.362 132.939 179.265 131.619 176.84L130.687 175.129C129.367 172.704 126.364 171.869 123.981 173.264L92.1368 191.912C89.7539 193.307 86.7517 192.472 85.4312 190.047L15.9381 62.4172Z" fill="black"/>
<path d="M15.9381 62.4172C14.6176 59.992 11.6153 59.1571 9.23238 60.5525L7.74328 61.4245C5.36034 62.8199 4.49907 65.9171 5.81959 68.3423L77.7037 200.363C79.219 203.146 81.7383 205.191 84.7073 206.048C87.6764 206.904 90.852 206.503 93.5356 204.931L129.695 183.758C132.078 182.362 132.939 179.265 131.619 176.84L130.687 175.129C129.367 172.704 126.364 171.869 123.981 173.264L92.1368 191.912C89.7539 193.307 86.7517 192.472 85.4312 190.047L15.9381 62.4172Z" fill="url(#paint1_linear_171_68)"/>
<defs>
<linearGradient id="paint0_linear_171_68" x1="33.0744" y1="69.381" x2="212.271" y2="47.2745" gradientUnits="userSpaceOnUse">
<stop stop-color="#0044AB"/>
<stop offset="1" stop-color="#1EBBFF"/>
</linearGradient>
<linearGradient id="paint1_linear_171_68" x1="7.40832" y1="71.2601" x2="83.1796" y2="43.9478" gradientUnits="userSpaceOnUse">
<stop stop-color="#0044AB"/>
<stop offset="1" stop-color="#1EBBFF"/>
</linearGradient>
</defs>
</svg>
