<svg width="161" height="154" viewBox="0 0 161 154" fill="none" xmlns="http://www.w3.org/2000/svg">
<g filter="url(#filter0_d_171_72)">
<path d="M26.2009 34.0245L45.713 104.94C47.8854 112.835 43.7297 118.759 37.8322 120.381C32.4538 121.861 25.5287 119.749 23.1612 111.145L3.79223 40.7497C1.78899 33.469 5.91868 27.4506 11.8161 25.8279C17.7136 24.2053 24.4709 27.7367 26.2009 34.0245ZM65.5873 61.8889L75.2002 96.8264C77.3856 104.769 73.1225 110.671 67.3194 112.268C61.941 113.748 55.0159 111.636 52.6484 103.031L43.1786 68.614C41.1753 61.3333 45.305 55.3149 51.2024 53.6922C57.0999 52.0696 63.8572 55.6011 65.5873 61.8889ZM90.6018 81.6038C84.3741 83.3174 80.7177 89.765 82.4218 95.9583C83.2463 98.955 85.2251 101.502 87.9228 103.039C90.6204 104.576 93.8161 104.978 96.8066 104.155C99.7972 103.332 102.338 101.352 103.869 98.6516C105.401 95.9508 105.798 92.7499 104.974 89.7532C103.27 83.5599 96.8295 79.8903 90.6018 81.6038Z" fill="black"/>
<path d="M26.2009 34.0245L45.713 104.94C47.8854 112.835 43.7297 118.759 37.8322 120.381C32.4538 121.861 25.5287 119.749 23.1612 111.145L3.79223 40.7497C1.78899 33.469 5.91868 27.4506 11.8161 25.8279C17.7136 24.2053 24.4709 27.7367 26.2009 34.0245ZM65.5873 61.8889L75.2002 96.8264C77.3856 104.769 73.1225 110.671 67.3194 112.268C61.941 113.748 55.0159 111.636 52.6484 103.031L43.1786 68.614C41.1753 61.3333 45.305 55.3149 51.2024 53.6922C57.0999 52.0696 63.8572 55.6011 65.5873 61.8889ZM90.6018 81.6038C84.3741 83.3174 80.7177 89.765 82.4218 95.9583C83.2463 98.955 85.2251 101.502 87.9228 103.039C90.6204 104.576 93.8161 104.978 96.8066 104.155C99.7972 103.332 102.338 101.352 103.869 98.6516C105.401 95.9508 105.798 92.7499 104.974 89.7532C103.27 83.5599 96.8295 79.8903 90.6018 81.6038Z" fill="url(#paint0_linear_171_72)"/>
</g>
<defs>
<filter id="filter0_d_171_72" x="0.580578" y="0.734936" width="159.514" height="152.781" filterUnits="userSpaceOnUse" color-interpolation-filters="sRGB">
<feFlood flood-opacity="0" result="BackgroundImageFix"/>
<feColorMatrix in="SourceAlpha" type="matrix" values="0 0 0 0 0 0 0 0 0 0 0 0 0 0 0 0 0 0 127 0" result="hardAlpha"/>
<feOffset dx="26" dy="4"/>
<feGaussianBlur stdDeviation="14.35"/>
<feComposite in2="hardAlpha" operator="out"/>
<feColorMatrix type="matrix" values="0 0 0 0 0 0 0 0 0 0.268237 0 0 0 0 0.670592 0 0 0 0.1 0"/>
<feBlend mode="normal" in2="BackgroundImageFix" result="effect1_dropShadow_171_72"/>
<feBlend mode="normal" in="SourceGraphic" in2="effect1_dropShadow_171_72" result="shape"/>
</filter>
<linearGradient id="paint0_linear_171_72" x1="83.3608" y1="11.2032" x2="-5.73743" y2="76.445" gradientUnits="userSpaceOnUse">
<stop stop-color="#0044AB"/>
<stop offset="1" stop-color="#1EBBFF"/>
</linearGradient>
</defs>
</svg>
