<svg width="139" height="133" viewBox="0 0 139 133" fill="none" xmlns="http://www.w3.org/2000/svg">
<g filter="url(#filter0_d_171_61)">
<path fill-rule="evenodd" clip-rule="evenodd" d="M32.16 97.5342L32.1212 97.5253L31.84 97.5406L31.7689 97.5257L31.7287 97.493L31.5454 97.2792C31.5152 97.2534 31.4867 97.2477 31.4599 97.262L31.4328 97.2891L30.7787 98.6655L30.7671 98.7379L30.7816 98.7944L31.0184 99.182L31.0618 99.216L31.1067 99.2197L31.5504 99.1231L31.612 99.0875L31.6489 99.0375L32.1904 97.6168C32.1966 97.5782 32.1865 97.5507 32.16 97.5342ZM33.1849 97.5351L33.1396 97.5235L32.4043 97.569L32.3576 97.5877L32.3324 97.6195L31.79 99.0514L31.7896 99.0976L31.8059 99.1317L32.3334 99.717C32.3702 99.7457 32.4056 99.7505 32.4395 99.7314L32.4722 99.6912L33.2196 97.635C33.2254 97.5911 33.2139 97.5578 33.1849 97.5351ZM30.8431 96.5418C30.8324 96.5269 30.8164 96.5167 30.7983 96.5133C30.7803 96.5099 30.7617 96.5136 30.7463 96.5236L30.7071 96.561L29.7373 98.5221C29.7227 98.5623 29.73 98.5964 29.7593 98.6244L29.8112 98.6389L30.5988 98.6157L30.6427 98.6035L30.6712 98.5731L31.3281 97.1902L31.3351 97.1467L31.3163 97.1L30.8431 96.5418Z" fill="black"/>
<path fill-rule="evenodd" clip-rule="evenodd" d="M32.16 97.5342L32.1212 97.5253L31.84 97.5406L31.7689 97.5257L31.7287 97.493L31.5454 97.2792C31.5152 97.2534 31.4867 97.2477 31.4599 97.262L31.4328 97.2891L30.7787 98.6655L30.7671 98.7379L30.7816 98.7944L31.0184 99.182L31.0618 99.216L31.1067 99.2197L31.5504 99.1231L31.612 99.0875L31.6489 99.0375L32.1904 97.6168C32.1966 97.5782 32.1865 97.5507 32.16 97.5342ZM33.1849 97.5351L33.1396 97.5235L32.4043 97.569L32.3576 97.5877L32.3324 97.6195L31.79 99.0514L31.7896 99.0976L31.8059 99.1317L32.3334 99.717C32.3702 99.7457 32.4056 99.7505 32.4395 99.7314L32.4722 99.6912L33.2196 97.635C33.2254 97.5911 33.2139 97.5578 33.1849 97.5351ZM30.8431 96.5418C30.8324 96.5269 30.8164 96.5167 30.7983 96.5133C30.7803 96.5099 30.7617 96.5136 30.7463 96.5236L30.7071 96.561L29.7373 98.5221C29.7227 98.5623 29.73 98.5964 29.7593 98.6244L29.8112 98.6389L30.5988 98.6157L30.6427 98.6035L30.6712 98.5731L31.3281 97.1902L31.3351 97.1467L31.3163 97.1L30.8431 96.5418Z" fill="url(#paint0_linear_171_61)"/>
<path fill-rule="evenodd" clip-rule="evenodd" d="M57.3786 26.8178C58.876 26.8867 60.3135 27.4267 61.4859 28.3608L61.9716 28.7812L81.2005 47.1576C82.1755 48.0893 82.8656 49.279 83.1905 50.5879C83.5153 51.8967 83.4615 53.271 83.0354 54.5505L82.8275 55.1001L75.3278 72.6446C73.0616 77.9455 69.4063 82.5364 64.7477 85.9324C60.0891 89.3285 54.6 91.4038 48.8598 91.9394L47.7953 92.0221L34.4779 92.8179C33.7448 92.8613 33.0106 92.7529 32.3213 92.4996C31.6321 92.2462 31.0025 91.8533 30.472 91.3454L30.0877 90.9412L21.4606 80.7648C17.7325 76.3671 15.2609 71.0444 14.3068 65.3587C13.3526 59.673 13.9513 53.8351 16.0395 48.4613L16.4427 47.4729L23.9425 29.9284C24.4723 28.689 25.3433 27.6256 26.454 26.8619C27.5648 26.0983 28.8696 25.6658 30.2165 25.6149L30.808 25.6163L57.3786 26.8178ZM57.0559 33.9268L30.4852 32.7253L22.9855 50.2698C21.2305 54.3754 20.6116 58.8774 21.1936 63.3043C21.7756 67.7312 23.537 71.9203 26.2935 75.4328L26.8902 76.1638L34.9412 85.6606L47.3692 84.918C51.8269 84.652 56.1311 83.1922 59.831 80.6915C63.5309 78.1909 66.4904 74.7414 68.3995 70.7044L68.785 69.8477L76.2847 52.3032L57.0559 33.9268ZM50.6246 44.5186C51.6522 44.5657 52.64 44.9298 53.4523 45.561L53.8436 45.8946L61.5352 53.2452C62.2098 53.89 62.6897 54.7115 62.9202 55.6159C63.1507 56.5202 63.1224 57.4712 62.8386 58.3603L62.6723 58.8038L59.6726 65.8209C58.6332 68.2525 56.967 70.3647 54.8442 71.9419C52.7215 73.519 50.2182 74.5045 47.5901 74.7978L46.8258 74.8658L41.4987 75.1809C40.9214 75.2158 40.343 75.133 39.7987 74.9375C39.2544 74.7421 38.7555 74.4381 38.3322 74.044L37.9838 73.6823L34.5352 69.6119C32.8255 67.5949 31.6815 65.1604 31.2202 62.5569C30.7588 59.9534 30.9965 57.274 31.9091 54.7924L32.1929 54.0741L35.1926 47.057C35.5594 46.1991 36.1599 45.4615 36.9255 44.9282C37.6912 44.3949 38.5912 44.0874 39.5231 44.0407L39.9963 44.038L50.6246 44.5186ZM49.5044 51.5924L41.1536 51.2147L38.7343 56.8742C38.203 58.1181 38.0031 59.4784 38.1541 60.8225C38.3051 62.1666 38.8018 63.4487 39.5959 64.5437L39.9616 65.0096L42.4927 67.9951L46.3997 67.7617C47.7508 67.681 49.0579 67.2514 50.1933 66.5147C51.3288 65.7781 52.2538 64.7596 52.8781 63.5587L53.1298 63.024L55.5477 57.3678L49.5044 51.5924Z" fill="black"/>
<path fill-rule="evenodd" clip-rule="evenodd" d="M57.3786 26.8178C58.876 26.8867 60.3135 27.4267 61.4859 28.3608L61.9716 28.7812L81.2005 47.1576C82.1755 48.0893 82.8656 49.279 83.1905 50.5879C83.5153 51.8967 83.4615 53.271 83.0354 54.5505L82.8275 55.1001L75.3278 72.6446C73.0616 77.9455 69.4063 82.5364 64.7477 85.9324C60.0891 89.3285 54.6 91.4038 48.8598 91.9394L47.7953 92.0221L34.4779 92.8179C33.7448 92.8613 33.0106 92.7529 32.3213 92.4996C31.6321 92.2462 31.0025 91.8533 30.472 91.3454L30.0877 90.9412L21.4606 80.7648C17.7325 76.3671 15.2609 71.0444 14.3068 65.3587C13.3526 59.673 13.9513 53.8351 16.0395 48.4613L16.4427 47.4729L23.9425 29.9284C24.4723 28.689 25.3433 27.6256 26.454 26.8619C27.5648 26.0983 28.8696 25.6658 30.2165 25.6149L30.808 25.6163L57.3786 26.8178ZM57.0559 33.9268L30.4852 32.7253L22.9855 50.2698C21.2305 54.3754 20.6116 58.8774 21.1936 63.3043C21.7756 67.7312 23.537 71.9203 26.2935 75.4328L26.8902 76.1638L34.9412 85.6606L47.3692 84.918C51.8269 84.652 56.1311 83.1922 59.831 80.6915C63.5309 78.1909 66.4904 74.7414 68.3995 70.7044L68.785 69.8477L76.2847 52.3032L57.0559 33.9268ZM50.6246 44.5186C51.6522 44.5657 52.64 44.9298 53.4523 45.561L53.8436 45.8946L61.5352 53.2452C62.2098 53.89 62.6897 54.7115 62.9202 55.6159C63.1507 56.5202 63.1224 57.4712 62.8386 58.3603L62.6723 58.8038L59.6726 65.8209C58.6332 68.2525 56.967 70.3647 54.8442 71.9419C52.7215 73.519 50.2182 74.5045 47.5901 74.7978L46.8258 74.8658L41.4987 75.1809C40.9214 75.2158 40.343 75.133 39.7987 74.9375C39.2544 74.7421 38.7555 74.4381 38.3322 74.044L37.9838 73.6823L34.5352 69.6119C32.8255 67.5949 31.6815 65.1604 31.2202 62.5569C30.7588 59.9534 30.9965 57.274 31.9091 54.7924L32.1929 54.0741L35.1926 47.057C35.5594 46.1991 36.1599 45.4615 36.9255 44.9282C37.6912 44.3949 38.5912 44.0874 39.5231 44.0407L39.9963 44.038L50.6246 44.5186ZM49.5044 51.5924L41.1536 51.2147L38.7343 56.8742C38.203 58.1181 38.0031 59.4784 38.1541 60.8225C38.3051 62.1666 38.8018 63.4487 39.5959 64.5437L39.9616 65.0096L42.4927 67.9951L46.3997 67.7617C47.7508 67.681 49.0579 67.2514 50.1933 66.5147C51.3288 65.7781 52.2538 64.7596 52.8781 63.5587L53.1298 63.024L55.5477 57.3678L49.5044 51.5924Z" fill="url(#paint1_linear_171_61)"/>
</g>
<defs>
<filter id="filter0_d_171_61" x="11.1652" y="0.914944" width="126.935" height="131.528" filterUnits="userSpaceOnUse" color-interpolation-filters="sRGB">
<feFlood flood-opacity="0" result="BackgroundImageFix"/>
<feColorMatrix in="SourceAlpha" type="matrix" values="0 0 0 0 0 0 0 0 0 0 0 0 0 0 0 0 0 0 127 0" result="hardAlpha"/>
<feOffset dx="26" dy="4"/>
<feGaussianBlur stdDeviation="14.35"/>
<feComposite in2="hardAlpha" operator="out"/>
<feColorMatrix type="matrix" values="0 0 0 0 0 0 0 0 0 0.268237 0 0 0 0 0.670592 0 0 0 0.1 0"/>
<feBlend mode="normal" in2="BackgroundImageFix" result="effect1_dropShadow_171_61"/>
<feBlend mode="normal" in="SourceGraphic" in2="effect1_dropShadow_171_61" result="shape"/>
</filter>
<linearGradient id="paint0_linear_171_61" x1="30.5813" y1="96.5476" x2="32.8235" y2="99.4159" gradientUnits="userSpaceOnUse">
<stop stop-color="#0044AB"/>
<stop offset="1" stop-color="#1EBBFF"/>
</linearGradient>
<linearGradient id="paint1_linear_171_61" x1="29.0272" y1="18.0334" x2="87.8556" y2="76.7179" gradientUnits="userSpaceOnUse">
<stop stop-color="#0044AB"/>
<stop offset="1" stop-color="#1EBBFF"/>
</linearGradient>
</defs>
</svg>
