<svg width="427" height="272" viewBox="0 0 427 272" fill="none" xmlns="http://www.w3.org/2000/svg">
<g filter="url(#filter0_d_171_54)">
<g filter="url(#filter1_d_171_54)">
<rect x="155.249" y="156.713" width="121.706" height="121.706" rx="10" transform="rotate(24.1002 155.249 156.713)" fill="white"/>
<rect x="155.249" y="156.713" width="121.706" height="121.706" rx="10" transform="rotate(24.1002 155.249 156.713)" fill="url(#paint0_radial_171_54)"/>
<rect x="155.754" y="158.034" width="119.706" height="119.706" rx="9" transform="rotate(24.1002 155.754 158.034)" stroke="url(#paint1_linear_171_54)" stroke-width="2"/>
</g>
<path d="M211.035 211.666C219.219 215.327 225.614 222.09 228.813 230.466C232.012 238.842 231.752 248.146 228.09 256.331C224.429 264.516 217.667 270.911 209.29 274.109C200.914 277.308 191.61 277.048 183.425 273.387C175.241 269.725 168.846 262.963 165.647 254.586C162.448 246.21 162.708 236.906 166.37 228.721C170.031 220.537 176.793 214.142 185.17 210.943C193.546 207.745 202.85 208.004 211.035 211.666ZM207.583 219.381C201.445 216.635 194.467 216.44 188.185 218.839C181.903 221.238 176.831 226.034 174.085 232.173C171.339 238.311 171.144 245.289 173.543 251.571C175.942 257.854 180.738 262.926 186.876 265.671C193.015 268.417 199.993 268.612 206.275 266.213C212.557 263.814 217.629 259.018 220.375 252.88C223.121 246.741 223.316 239.763 220.917 233.481C218.518 227.199 213.722 222.127 207.583 219.381ZM200.275 225.37L206.061 227.959L199.538 242.54L204.506 255.549L198.588 257.809L192.682 242.344L200.275 225.37ZM136.728 243.239C135.705 242.781 134.906 241.936 134.506 240.889C134.106 239.842 134.139 238.679 134.596 237.656C135.054 236.633 135.899 235.833 136.946 235.433C137.993 235.034 139.156 235.066 140.179 235.524L154.954 242.133C154.925 245.407 155.311 248.681 156.016 251.867L136.728 243.239ZM149.214 225.677C148.191 225.219 147.391 224.374 146.991 223.327C146.592 222.28 146.624 221.117 147.082 220.094C147.539 219.07 148.385 218.271 149.432 217.871C150.479 217.471 151.642 217.504 152.665 217.962L160.573 221.499L158.654 225.27L157.122 229.214L149.214 225.677ZM161.699 208.114C160.676 207.657 159.877 206.811 159.477 205.764C159.077 204.717 159.11 203.554 159.567 202.531C160.025 201.508 160.87 200.709 161.917 200.309C162.964 199.909 164.127 199.942 165.15 200.399L176.723 205.576C173.879 207.174 171.18 209.068 168.759 211.272L161.699 208.114Z" fill="black"/>
<path d="M211.035 211.666C219.219 215.327 225.614 222.09 228.813 230.466C232.012 238.842 231.752 248.146 228.09 256.331C224.429 264.516 217.667 270.911 209.29 274.109C200.914 277.308 191.61 277.048 183.425 273.387C175.241 269.725 168.846 262.963 165.647 254.586C162.448 246.21 162.708 236.906 166.37 228.721C170.031 220.537 176.793 214.142 185.17 210.943C193.546 207.745 202.85 208.004 211.035 211.666ZM207.583 219.381C201.445 216.635 194.467 216.44 188.185 218.839C181.903 221.238 176.831 226.034 174.085 232.173C171.339 238.311 171.144 245.289 173.543 251.571C175.942 257.854 180.738 262.926 186.876 265.671C193.015 268.417 199.993 268.612 206.275 266.213C212.557 263.814 217.629 259.018 220.375 252.88C223.121 246.741 223.316 239.763 220.917 233.481C218.518 227.199 213.722 222.127 207.583 219.381ZM200.275 225.37L206.061 227.959L199.538 242.54L204.506 255.549L198.588 257.809L192.682 242.344L200.275 225.37ZM136.728 243.239C135.705 242.781 134.906 241.936 134.506 240.889C134.106 239.842 134.139 238.679 134.596 237.656C135.054 236.633 135.899 235.833 136.946 235.433C137.993 235.034 139.156 235.066 140.179 235.524L154.954 242.133C154.925 245.407 155.311 248.681 156.016 251.867L136.728 243.239ZM149.214 225.677C148.191 225.219 147.391 224.374 146.991 223.327C146.592 222.28 146.624 221.117 147.082 220.094C147.539 219.07 148.385 218.271 149.432 217.871C150.479 217.471 151.642 217.504 152.665 217.962L160.573 221.499L158.654 225.27L157.122 229.214L149.214 225.677ZM161.699 208.114C160.676 207.657 159.877 206.811 159.477 205.764C159.077 204.717 159.11 203.554 159.567 202.531C160.025 201.508 160.87 200.709 161.917 200.309C162.964 199.909 164.127 199.942 165.15 200.399L176.723 205.576C173.879 207.174 171.18 209.068 168.759 211.272L161.699 208.114Z" fill="url(#paint2_linear_171_54)"/>
</g>
<defs>
<filter id="filter0_d_171_54" x="106.062" y="135.222" width="211.776" height="211.776" filterUnits="userSpaceOnUse" color-interpolation-filters="sRGB">
<feFlood flood-opacity="0" result="BackgroundImageFix"/>
<feColorMatrix in="SourceAlpha" type="matrix" values="0 0 0 0 0 0 0 0 0 0 0 0 0 0 0 0 0 0 127 0" result="hardAlpha"/>
<feOffset dx="26" dy="4"/>
<feGaussianBlur stdDeviation="14.35"/>
<feComposite in2="hardAlpha" operator="out"/>
<feColorMatrix type="matrix" values="0 0 0 0 0 0 0 0 0 0.268237 0 0 0 0 0.670592 0 0 0 0.1 0"/>
<feBlend mode="normal" in2="BackgroundImageFix" result="effect1_dropShadow_171_54"/>
<feBlend mode="normal" in="SourceGraphic" in2="effect1_dropShadow_171_54" result="shape"/>
</filter>
<filter id="filter1_d_171_54" x="-54.8384" y="0.321747" width="481.576" height="481.576" filterUnits="userSpaceOnUse" color-interpolation-filters="sRGB">
<feFlood flood-opacity="0" result="BackgroundImageFix"/>
<feColorMatrix in="SourceAlpha" type="matrix" values="0 0 0 0 0 0 0 0 0 0 0 0 0 0 0 0 0 0 127 0" result="hardAlpha"/>
<feOffset dy="4"/>
<feGaussianBlur stdDeviation="81.8"/>
<feComposite in2="hardAlpha" operator="out"/>
<feColorMatrix type="matrix" values="0 0 0 0 0.115807 0 0 0 0 0.734742 0 0 0 0 1 0 0 0 0.1 0"/>
<feBlend mode="normal" in2="BackgroundImageFix" result="effect1_dropShadow_171_54"/>
<feBlend mode="normal" in="SourceGraphic" in2="effect1_dropShadow_171_54" result="shape"/>
</filter>
<radialGradient id="paint0_radial_171_54" cx="0" cy="0" r="1" gradientUnits="userSpaceOnUse" gradientTransform="translate(216.103 217.566) rotate(39.5726) scale(78.9462)">
<stop stop-color="#FFFCFC"/>
<stop offset="1" stop-color="#F3F3F3"/>
</radialGradient>
<linearGradient id="paint1_linear_171_54" x1="155.249" y1="217.566" x2="276.956" y2="217.566" gradientUnits="userSpaceOnUse">
<stop stop-color="#0044AB"/>
<stop offset="1" stop-color="#1EBBFF"/>
</linearGradient>
<linearGradient id="paint2_linear_171_54" x1="155.655" y1="190.578" x2="218.811" y2="281.942" gradientUnits="userSpaceOnUse">
<stop stop-color="#0044AB"/>
<stop offset="1" stop-color="#1EBBFF"/>
</linearGradient>
</defs>
</svg>
