<svg width="220" height="154" viewBox="0 0 220 154" fill="none" xmlns="http://www.w3.org/2000/svg">
<g filter="url(#filter0_d_171_74)">
<rect x="4" y="26" width="160" height="93.4643" rx="9" fill="white" stroke="url(#paint0_linear_171_74)" stroke-width="2"/>
<path fill-rule="evenodd" clip-rule="evenodd" d="M48.9241 51.9398H113.29C118.625 51.9398 123.741 54.1304 127.513 58.0298C131.285 61.9291 133.405 67.2177 133.405 72.7322C133.405 78.2467 131.285 83.5353 127.513 87.4347C123.741 91.334 118.625 93.5246 113.29 93.5246H48.9241C43.5895 93.5246 38.4733 91.334 34.7011 87.4347C30.9289 83.5353 28.8097 78.2467 28.8097 72.7322C28.8097 67.2177 30.9289 61.9291 34.7011 58.0298C38.4733 54.1304 43.5895 51.9398 48.9241 51.9398ZM16.7411 72.7322C16.7411 63.909 20.1318 55.4472 26.1673 49.2083C32.2028 42.9694 40.3887 39.4644 48.9241 39.4644H113.29C121.826 39.4644 130.012 42.9694 136.047 49.2083C142.083 55.4472 145.473 63.909 145.473 72.7322C145.473 81.5554 142.083 90.0172 136.047 96.2561C130.012 102.495 121.826 106 113.29 106H48.9241C40.3887 106 32.2028 102.495 26.1673 96.2561C20.1318 90.0172 16.7411 81.5554 16.7411 72.7322ZM48.9241 64.4152C46.7903 64.4152 44.7438 65.2915 43.2349 66.8512C41.726 68.411 40.8784 70.5264 40.8784 72.7322C40.8784 74.938 41.726 77.0535 43.2349 78.6132C44.7438 80.1729 46.7903 81.0492 48.9241 81.0492H89.1529C91.2868 81.0492 93.3333 80.1729 94.8421 78.6132C96.351 77.0535 97.1987 74.938 97.1987 72.7322C97.1987 70.5264 96.351 68.411 94.8421 66.8512C93.3333 65.2915 91.2868 64.4152 89.1529 64.4152H48.9241Z" fill="black"/>
<path fill-rule="evenodd" clip-rule="evenodd" d="M48.9241 51.9398H113.29C118.625 51.9398 123.741 54.1304 127.513 58.0298C131.285 61.9291 133.405 67.2177 133.405 72.7322C133.405 78.2467 131.285 83.5353 127.513 87.4347C123.741 91.334 118.625 93.5246 113.29 93.5246H48.9241C43.5895 93.5246 38.4733 91.334 34.7011 87.4347C30.9289 83.5353 28.8097 78.2467 28.8097 72.7322C28.8097 67.2177 30.9289 61.9291 34.7011 58.0298C38.4733 54.1304 43.5895 51.9398 48.9241 51.9398ZM16.7411 72.7322C16.7411 63.909 20.1318 55.4472 26.1673 49.2083C32.2028 42.9694 40.3887 39.4644 48.9241 39.4644H113.29C121.826 39.4644 130.012 42.9694 136.047 49.2083C142.083 55.4472 145.473 63.909 145.473 72.7322C145.473 81.5554 142.083 90.0172 136.047 96.2561C130.012 102.495 121.826 106 113.29 106H48.9241C40.3887 106 32.2028 102.495 26.1673 96.2561C20.1318 90.0172 16.7411 81.5554 16.7411 72.7322ZM48.9241 64.4152C46.7903 64.4152 44.7438 65.2915 43.2349 66.8512C41.726 68.411 40.8784 70.5264 40.8784 72.7322C40.8784 74.938 41.726 77.0535 43.2349 78.6132C44.7438 80.1729 46.7903 81.0492 48.9241 81.0492H89.1529C91.2868 81.0492 93.3333 80.1729 94.8421 78.6132C96.351 77.0535 97.1987 74.938 97.1987 72.7322C97.1987 70.5264 96.351 68.411 94.8421 66.8512C93.3333 65.2915 91.2868 64.4152 89.1529 64.4152H48.9241Z" fill="url(#paint1_linear_171_74)"/>
</g>
<defs>
<filter id="filter0_d_171_74" x="0.299999" y="0.299999" width="219.4" height="152.864" filterUnits="userSpaceOnUse" color-interpolation-filters="sRGB">
<feFlood flood-opacity="0" result="BackgroundImageFix"/>
<feColorMatrix in="SourceAlpha" type="matrix" values="0 0 0 0 0 0 0 0 0 0 0 0 0 0 0 0 0 0 127 0" result="hardAlpha"/>
<feOffset dx="26" dy="4"/>
<feGaussianBlur stdDeviation="14.35"/>
<feComposite in2="hardAlpha" operator="out"/>
<feColorMatrix type="matrix" values="0 0 0 0 0 0 0 0 0 0.268237 0 0 0 0 0.670592 0 0 0 0.1 0"/>
<feBlend mode="normal" in2="BackgroundImageFix" result="effect1_dropShadow_171_74"/>
<feBlend mode="normal" in="SourceGraphic" in2="effect1_dropShadow_171_74" result="shape"/>
</filter>
<linearGradient id="paint0_linear_171_74" x1="3" y1="72.7321" x2="165" y2="72.7321" gradientUnits="userSpaceOnUse">
<stop stop-color="#0044AB"/>
<stop offset="1" stop-color="#1EBBFF"/>
</linearGradient>
<linearGradient id="paint1_linear_171_74" x1="16.7411" y1="42.7748" x2="120.79" y2="131.602" gradientUnits="userSpaceOnUse">
<stop stop-color="#0044AB"/>
<stop offset="1" stop-color="#1EBBFF"/>
</linearGradient>
</defs>
</svg>
