<svg width="159" height="159" viewBox="0 0 159 159" fill="none" xmlns="http://www.w3.org/2000/svg">
<g filter="url(#filter0_d_171_108)">
<path d="M20.9453 113.51C19.8134 112.53 18.6504 111.466 18.362 111.147C17.9344 110.681 17.495 110.227 17.0444 109.783C16.5335 109.271 16.0426 108.74 15.5728 108.19C13.4112 105.606 13.2615 105.414 11.7993 103.218C10.4525 101.201 8.22432 97.11 7.5976 95.5104C7.42733 95.0706 7.24843 94.6882 7.20249 94.6571C7.15655 94.626 6.76402 93.5906 6.32847 92.3552C3.56137 84.4986 2.77048 76.6993 3.91567 68.5275C4.11142 67.1232 4.3217 65.9023 4.38126 65.8144C4.43993 65.7277 4.50923 65.4246 4.53199 65.1456C4.58133 64.5668 4.85902 63.4359 5.22199 62.3184C5.3749 61.8427 5.50489 61.3599 5.61154 60.8717C5.68681 60.4887 5.83045 60.0576 5.92942 59.9114C6.02882 59.7646 6.22583 59.2017 6.36962 58.6575C6.51122 58.1166 6.736 57.5168 6.8665 57.324C6.99612 57.1325 7.32354 56.3881 7.59272 55.6685C8.26256 53.8955 10.5525 49.6786 12.0528 47.462C13.5513 45.248 16.6151 41.5548 18.0117 40.2746C18.5796 39.7562 19.1579 39.1637 19.2981 38.9567C19.4386 38.749 19.8079 38.4055 20.1181 38.191C20.4308 37.98 20.9321 37.5599 21.235 37.2602C21.5404 36.9622 22.1059 36.4751 22.4991 36.1771L23.6366 35.3188C24.483 34.6718 25.2221 34.1401 25.5329 33.9485C25.7083 33.8427 26.4115 33.4017 27.0979 32.9701C28.2075 32.273 30.4127 31.0345 31.6241 30.4252C32.0671 30.2014 32.2233 30.1336 34.4493 29.1752C37.9796 27.6515 43.1686 26.2948 47.506 25.7598C49.0347 25.5709 53.8936 25.3068 54.0379 25.4045C54.078 25.4316 54.5038 25.4547 54.9864 25.4568C56.2528 25.4631 57.4429 25.546 58.935 25.7417C59.4688 25.8146 60.0039 25.8771 60.5402 25.9291C60.7964 25.9478 61.2502 26.0229 63.5661 26.43C64.0758 26.5202 64.6053 26.6466 66.1087 27.0443C66.4396 27.1325 67.1115 27.2995 67.5935 27.4153C68.0776 27.5335 68.613 27.7223 68.7825 27.8371C68.9494 27.95 69.4675 28.1309 69.9342 28.2373C70.4006 28.3426 71.1815 28.6315 71.6714 28.882C72.1576 29.1337 72.8415 29.4126 73.1893 29.5037C73.5323 29.5962 74.3798 29.9887 75.0711 30.3764C75.9758 30.8763 76.894 31.3514 77.8245 31.8014C79.7362 32.7235 83.5172 35.2826 85.0656 36.7023C85.7995 37.3692 86.5502 38.0172 87.317 38.6459C87.899 39.1144 88.598 39.7752 88.8723 40.1156C89.1484 40.4534 89.6599 40.9882 90.0122 41.2956C90.362 41.6068 90.9012 42.2039 91.2086 42.6251C91.5154 43.0498 91.8968 43.4815 92.056 43.5892C92.2151 43.6969 92.4838 44.008 92.6485 44.2818C92.8176 44.5547 93.2076 45.0837 93.5174 45.4595C93.8229 45.836 94.3268 46.5119 94.6371 46.9692C94.9446 47.4235 95.3601 48.0293 95.5622 48.3132C95.9334 48.838 98.3681 53.1717 98.6565 53.8244C101.005 59.1091 101.975 62.1796 102.82 66.9855C103.838 72.7821 103.83 77.6405 102.796 84.1009C102.723 84.5571 102.623 85.2375 102.577 85.6109C102.526 85.9859 102.42 86.3934 102.337 86.515C102.254 86.6379 102.121 87.0855 102.042 87.5121C101.826 88.6705 101.47 89.9144 101.1 90.7991C100.919 91.2334 100.744 91.8033 100.711 92.0646C100.678 92.3257 100.46 92.8978 100.232 93.3332C100.004 93.7676 99.6896 94.5208 99.5316 94.9996C98.6453 97.7308 94.4178 104.683 92.0038 107.39C91.2868 108.194 90.4291 109.173 90.0982 109.564C89.5328 110.235 87.8868 111.845 86.7108 112.88L85.4745 113.982C83.1076 116.113 79.0722 118.699 74.8754 120.778C73.2107 121.605 68.2173 123.506 67.45 123.605C67.3812 123.614 66.9947 123.722 66.5965 123.842C66.1961 123.965 64.9871 124.249 63.9143 124.474C59.1869 125.463 55.74 125.721 50.1437 125.501C49.4799 125.475 44.2069 124.729 43.2625 124.529C42.774 124.422 41.9561 124.248 41.4475 124.14C40.9427 124.031 40.4095 123.865 40.2687 123.774C40.1282 123.682 39.678 123.558 39.2686 123.498C38.86 123.438 38.3838 123.297 38.208 123.182C38.0342 123.068 37.4491 122.849 36.9076 122.696C36.365 122.546 35.6422 122.29 35.3016 122.128C34.9608 121.968 34.2126 121.653 33.6366 121.426C33.0611 121.198 31.402 120.392 29.9539 119.637C26.7194 117.958 23.6954 115.901 20.9453 113.51ZM29.4618 107.482C29.7584 107.462 30.1624 107.296 30.3586 107.12C30.7917 106.732 75.0957 81.7691 75.7692 81.5363C76.3377 81.339 76.7981 80.7186 76.6775 80.3087C76.6158 80.0905 74.8417 78.8341 70.0319 75.59C66.4229 73.1586 63.3913 71.1105 63.2941 71.041C63.1513 70.9368 64.7508 68.5081 71.7467 58.2039C76.4938 51.2124 80.3796 45.4002 80.3834 45.2858C80.3881 45.1701 80.235 44.9712 80.0429 44.8412C79.7724 44.6581 79.5674 44.6892 79.1262 44.983C78.3009 45.5263 76.2726 46.6553 66.5063 51.993C64.4787 53.1001 62.4525 54.2098 60.4277 55.322C58.6893 56.2793 55.9542 57.7781 54.3543 58.6546C50.0513 61.0093 45.7507 63.3685 41.4527 65.7324C34.0415 69.8067 33.1521 70.2886 32.9038 70.3601C32.4213 70.5015 31.7761 71.144 31.7372 71.5234C31.7005 71.8702 31.9646 72.0641 38.7094 76.614C42.564 79.2163 45.7271 81.3864 45.74 81.4385C45.7669 81.5898 29.4575 105.615 28.9783 106.127C28.6633 106.463 28.5685 106.689 28.6242 106.978C28.7199 107.477 28.8032 107.53 29.4618 107.482Z" fill="black"/>
<path d="M20.9453 113.51C19.8134 112.53 18.6504 111.466 18.362 111.147C17.9344 110.681 17.495 110.227 17.0444 109.783C16.5335 109.271 16.0426 108.74 15.5728 108.19C13.4112 105.606 13.2615 105.414 11.7993 103.218C10.4525 101.201 8.22432 97.11 7.5976 95.5104C7.42733 95.0706 7.24843 94.6882 7.20249 94.6571C7.15655 94.626 6.76402 93.5906 6.32847 92.3552C3.56137 84.4986 2.77048 76.6993 3.91567 68.5275C4.11142 67.1232 4.3217 65.9023 4.38126 65.8144C4.43993 65.7277 4.50923 65.4246 4.53199 65.1456C4.58133 64.5668 4.85902 63.4359 5.22199 62.3184C5.3749 61.8427 5.50489 61.3599 5.61154 60.8717C5.68681 60.4887 5.83045 60.0576 5.92942 59.9114C6.02882 59.7646 6.22583 59.2017 6.36962 58.6575C6.51122 58.1166 6.736 57.5168 6.8665 57.324C6.99612 57.1325 7.32354 56.3881 7.59272 55.6685C8.26256 53.8955 10.5525 49.6786 12.0528 47.462C13.5513 45.248 16.6151 41.5548 18.0117 40.2746C18.5796 39.7562 19.1579 39.1637 19.2981 38.9567C19.4386 38.749 19.8079 38.4055 20.1181 38.191C20.4308 37.98 20.9321 37.5599 21.235 37.2602C21.5404 36.9622 22.1059 36.4751 22.4991 36.1771L23.6366 35.3188C24.483 34.6718 25.2221 34.1401 25.5329 33.9485C25.7083 33.8427 26.4115 33.4017 27.0979 32.9701C28.2075 32.273 30.4127 31.0345 31.6241 30.4252C32.0671 30.2014 32.2233 30.1336 34.4493 29.1752C37.9796 27.6515 43.1686 26.2948 47.506 25.7598C49.0347 25.5709 53.8936 25.3068 54.0379 25.4045C54.078 25.4316 54.5038 25.4547 54.9864 25.4568C56.2528 25.4631 57.4429 25.546 58.935 25.7417C59.4688 25.8146 60.0039 25.8771 60.5402 25.9291C60.7964 25.9478 61.2502 26.0229 63.5661 26.43C64.0758 26.5202 64.6053 26.6466 66.1087 27.0443C66.4396 27.1325 67.1115 27.2995 67.5935 27.4153C68.0776 27.5335 68.613 27.7223 68.7825 27.8371C68.9494 27.95 69.4675 28.1309 69.9342 28.2373C70.4006 28.3426 71.1815 28.6315 71.6714 28.882C72.1576 29.1337 72.8415 29.4126 73.1893 29.5037C73.5323 29.5962 74.3798 29.9887 75.0711 30.3764C75.9758 30.8763 76.894 31.3514 77.8245 31.8014C79.7362 32.7235 83.5172 35.2826 85.0656 36.7023C85.7995 37.3692 86.5502 38.0172 87.317 38.6459C87.899 39.1144 88.598 39.7752 88.8723 40.1156C89.1484 40.4534 89.6599 40.9882 90.0122 41.2956C90.362 41.6068 90.9012 42.2039 91.2086 42.6251C91.5154 43.0498 91.8968 43.4815 92.056 43.5892C92.2151 43.6969 92.4838 44.008 92.6485 44.2818C92.8176 44.5547 93.2076 45.0837 93.5174 45.4595C93.8229 45.836 94.3268 46.5119 94.6371 46.9692C94.9446 47.4235 95.3601 48.0293 95.5622 48.3132C95.9334 48.838 98.3681 53.1717 98.6565 53.8244C101.005 59.1091 101.975 62.1796 102.82 66.9855C103.838 72.7821 103.83 77.6405 102.796 84.1009C102.723 84.5571 102.623 85.2375 102.577 85.6109C102.526 85.9859 102.42 86.3934 102.337 86.515C102.254 86.6379 102.121 87.0855 102.042 87.5121C101.826 88.6705 101.47 89.9144 101.1 90.7991C100.919 91.2334 100.744 91.8033 100.711 92.0646C100.678 92.3257 100.46 92.8978 100.232 93.3332C100.004 93.7676 99.6896 94.5208 99.5316 94.9996C98.6453 97.7308 94.4178 104.683 92.0038 107.39C91.2868 108.194 90.4291 109.173 90.0982 109.564C89.5328 110.235 87.8868 111.845 86.7108 112.88L85.4745 113.982C83.1076 116.113 79.0722 118.699 74.8754 120.778C73.2107 121.605 68.2173 123.506 67.45 123.605C67.3812 123.614 66.9947 123.722 66.5965 123.842C66.1961 123.965 64.9871 124.249 63.9143 124.474C59.1869 125.463 55.74 125.721 50.1437 125.501C49.4799 125.475 44.2069 124.729 43.2625 124.529C42.774 124.422 41.9561 124.248 41.4475 124.14C40.9427 124.031 40.4095 123.865 40.2687 123.774C40.1282 123.682 39.678 123.558 39.2686 123.498C38.86 123.438 38.3838 123.297 38.208 123.182C38.0342 123.068 37.4491 122.849 36.9076 122.696C36.365 122.546 35.6422 122.29 35.3016 122.128C34.9608 121.968 34.2126 121.653 33.6366 121.426C33.0611 121.198 31.402 120.392 29.9539 119.637C26.7194 117.958 23.6954 115.901 20.9453 113.51ZM29.4618 107.482C29.7584 107.462 30.1624 107.296 30.3586 107.12C30.7917 106.732 75.0957 81.7691 75.7692 81.5363C76.3377 81.339 76.7981 80.7186 76.6775 80.3087C76.6158 80.0905 74.8417 78.8341 70.0319 75.59C66.4229 73.1586 63.3913 71.1105 63.2941 71.041C63.1513 70.9368 64.7508 68.5081 71.7467 58.2039C76.4938 51.2124 80.3796 45.4002 80.3834 45.2858C80.3881 45.1701 80.235 44.9712 80.0429 44.8412C79.7724 44.6581 79.5674 44.6892 79.1262 44.983C78.3009 45.5263 76.2726 46.6553 66.5063 51.993C64.4787 53.1001 62.4525 54.2098 60.4277 55.322C58.6893 56.2793 55.9542 57.7781 54.3543 58.6546C50.0513 61.0093 45.7507 63.3685 41.4527 65.7324C34.0415 69.8067 33.1521 70.2886 32.9038 70.3601C32.4213 70.5015 31.7761 71.144 31.7372 71.5234C31.7005 71.8702 31.9646 72.0641 38.7094 76.614C42.564 79.2163 45.7271 81.3864 45.74 81.4385C45.7669 81.5898 29.4575 105.615 28.9783 106.127C28.6633 106.463 28.5685 106.689 28.6242 106.978C28.7199 107.477 28.8032 107.53 29.4618 107.482Z" fill="url(#paint0_linear_171_108)"/>
</g>
<defs>
<filter id="filter0_d_171_108" x="0.708691" y="0.683544" width="157.569" height="157.591" filterUnits="userSpaceOnUse" color-interpolation-filters="sRGB">
<feFlood flood-opacity="0" result="BackgroundImageFix"/>
<feColorMatrix in="SourceAlpha" type="matrix" values="0 0 0 0 0 0 0 0 0 0 0 0 0 0 0 0 0 0 127 0" result="hardAlpha"/>
<feOffset dx="26" dy="4"/>
<feGaussianBlur stdDeviation="14.35"/>
<feComposite in2="hardAlpha" operator="out"/>
<feColorMatrix type="matrix" values="0 0 0 0 0 0 0 0 0 0.268237 0 0 0 0 0.670592 0 0 0 0.1 0"/>
<feBlend mode="normal" in2="BackgroundImageFix" result="effect1_dropShadow_171_108"/>
<feBlend mode="normal" in="SourceGraphic" in2="effect1_dropShadow_171_108" result="shape"/>
</filter>
<linearGradient id="paint0_linear_171_108" x1="37.3235" y1="10.1251" x2="105.318" y2="118.427" gradientUnits="userSpaceOnUse">
<stop stop-color="#0044AB"/>
<stop offset="1" stop-color="#1EBBFF"/>
</linearGradient>
</defs>
</svg>
