<svg width="164" height="163" viewBox="0 0 164 163" fill="none" xmlns="http://www.w3.org/2000/svg">
<g filter="url(#filter0_d_171_71)">
<path d="M22.1949 43.748C14.3862 51.5566 9.52666 61.8312 8.44418 72.8211C7.3617 83.811 10.1233 94.8362 16.2584 104.018C22.3935 113.2 31.5226 119.971 42.09 123.177C52.6575 126.382 64.0096 125.825 74.2121 121.599C84.4145 117.373 92.8361 109.74 98.0418 100.001C103.248 90.262 104.915 79.0192 102.761 68.1883C100.607 57.3574 94.7636 47.6085 86.2273 40.6028C77.691 33.597 66.9896 29.7679 55.9466 29.7678V40.375M55.9466 77.5L24.1254 45.6785M103.679 77.5H93.0714M55.9466 114.625V125.232M18.8218 77.5H8.21472" stroke="black" stroke-width="10" stroke-linecap="round" shape-rendering="crispEdges"/>
<path d="M22.1949 43.748C14.3862 51.5566 9.52666 61.8312 8.44418 72.8211C7.3617 83.811 10.1233 94.8362 16.2584 104.018C22.3935 113.2 31.5226 119.971 42.09 123.177C52.6575 126.382 64.0096 125.825 74.2121 121.599C84.4145 117.373 92.8361 109.74 98.0418 100.001C103.248 90.262 104.915 79.0192 102.761 68.1883C100.607 57.3574 94.7636 47.6085 86.2273 40.6028C77.691 33.597 66.9896 29.7679 55.9466 29.7678V40.375M55.9466 77.5L24.1254 45.6785M103.679 77.5H93.0714M55.9466 114.625V125.232M18.8218 77.5H8.21472" stroke="url(#paint0_linear_171_71)" stroke-width="10" stroke-linecap="round" shape-rendering="crispEdges"/>
</g>
<defs>
<filter id="filter0_d_171_71" x="0.514233" y="0.0678215" width="162.864" height="162.864" filterUnits="userSpaceOnUse" color-interpolation-filters="sRGB">
<feFlood flood-opacity="0" result="BackgroundImageFix"/>
<feColorMatrix in="SourceAlpha" type="matrix" values="0 0 0 0 0 0 0 0 0 0 0 0 0 0 0 0 0 0 127 0" result="hardAlpha"/>
<feOffset dx="26" dy="4"/>
<feGaussianBlur stdDeviation="14.35"/>
<feComposite in2="hardAlpha" operator="out"/>
<feColorMatrix type="matrix" values="0 0 0 0 0 0 0 0 0 0.268237 0 0 0 0 0.670592 0 0 0 0.1 0"/>
<feBlend mode="normal" in2="BackgroundImageFix" result="effect1_dropShadow_171_71"/>
<feBlend mode="normal" in="SourceGraphic" in2="effect1_dropShadow_171_71" result="shape"/>
</filter>
<linearGradient id="paint0_linear_171_71" x1="8.21423" y1="77.5" x2="103.679" y2="77.5" gradientUnits="userSpaceOnUse">
<stop stop-color="#0044AB"/>
<stop offset="1" stop-color="#1EBBFF"/>
</linearGradient>
</defs>
</svg>
