<svg width="439" height="439" viewBox="0 0 439 439" fill="none" xmlns="http://www.w3.org/2000/svg">
<g filter="url(#filter0_d_171_105)">
<g filter="url(#filter1_d_171_105)">
<rect x="179.997" y="158" width="98.4752" height="98.4752" rx="10" transform="rotate(10.5304 179.997 158)" fill="white"/>
<rect x="179.997" y="158" width="98.4752" height="98.4752" rx="10" transform="rotate(10.5304 179.997 158)" fill="url(#paint0_radial_171_105)"/>
<rect x="180.797" y="159.166" width="96.4752" height="96.4752" rx="9" transform="rotate(10.5304 180.797 159.166)" stroke="url(#paint1_linear_171_105)" stroke-width="2"/>
</g>
<path d="M234.307 190.632C241.439 191.958 247.753 196.063 251.859 202.044C255.965 208.025 257.527 215.392 256.201 222.525C254.875 229.657 250.77 235.971 244.789 240.077C238.808 244.183 231.441 245.745 224.308 244.419C217.176 243.093 210.862 238.988 206.756 233.007C202.65 227.026 201.088 219.659 202.414 212.526C203.74 205.394 207.845 199.08 213.826 194.974C219.807 190.868 227.174 189.306 234.307 190.632ZM233.057 197.355C227.707 196.361 222.182 197.532 217.696 200.612C213.21 203.691 210.132 208.427 209.137 213.776C208.143 219.126 209.314 224.651 212.394 229.137C215.473 233.623 220.209 236.701 225.558 237.696C230.908 238.69 236.433 237.519 240.919 234.439C245.405 231.36 248.483 226.624 249.478 221.275C250.472 215.925 249.301 210.4 246.221 205.914C243.142 201.429 238.406 198.35 233.057 197.355ZM228.445 203.454L233.488 204.391L231.126 217.098L237.503 226.387L233.277 229.288L225.696 218.245L228.445 203.454ZM181.856 229.572C180.965 229.406 180.175 228.893 179.662 228.146C179.149 227.398 178.954 226.477 179.119 225.585C179.285 224.694 179.798 223.905 180.546 223.391C181.293 222.878 182.214 222.683 183.106 222.849L195.981 225.242C196.58 227.822 197.506 230.325 198.665 232.696L181.856 229.572ZM188.342 213.388C187.451 213.223 186.662 212.71 186.148 211.962C185.635 211.214 185.44 210.293 185.606 209.402C185.771 208.51 186.284 207.721 187.032 207.208C187.78 206.695 188.701 206.499 189.592 206.665L196.484 207.946L195.691 211.277L195.234 214.669L188.342 213.388ZM194.828 197.205C193.937 197.039 193.148 196.526 192.634 195.778C192.121 195.031 191.926 194.11 192.092 193.218C192.257 192.327 192.771 191.537 193.518 191.024C194.266 190.511 195.187 190.316 196.078 190.481L206.163 192.356C204.23 194.153 202.466 196.155 200.98 198.348L194.828 197.205Z" fill="black"/>
<path d="M234.307 190.632C241.439 191.958 247.753 196.063 251.859 202.044C255.965 208.025 257.527 215.392 256.201 222.525C254.875 229.657 250.77 235.971 244.789 240.077C238.808 244.183 231.441 245.745 224.308 244.419C217.176 243.093 210.862 238.988 206.756 233.007C202.65 227.026 201.088 219.659 202.414 212.526C203.74 205.394 207.845 199.08 213.826 194.974C219.807 190.868 227.174 189.306 234.307 190.632ZM233.057 197.355C227.707 196.361 222.182 197.532 217.696 200.612C213.21 203.691 210.132 208.427 209.137 213.776C208.143 219.126 209.314 224.651 212.394 229.137C215.473 233.623 220.209 236.701 225.558 237.696C230.908 238.69 236.433 237.519 240.919 234.439C245.405 231.36 248.483 226.624 249.478 221.275C250.472 215.925 249.301 210.4 246.221 205.914C243.142 201.429 238.406 198.35 233.057 197.355ZM228.445 203.454L233.488 204.391L231.126 217.098L237.503 226.387L233.277 229.288L225.696 218.245L228.445 203.454ZM181.856 229.572C180.965 229.406 180.175 228.893 179.662 228.146C179.149 227.398 178.954 226.477 179.119 225.585C179.285 224.694 179.798 223.905 180.546 223.391C181.293 222.878 182.214 222.683 183.106 222.849L195.981 225.242C196.58 227.822 197.506 230.325 198.665 232.696L181.856 229.572ZM188.342 213.388C187.451 213.223 186.662 212.71 186.148 211.962C185.635 211.214 185.44 210.293 185.606 209.402C185.771 208.51 186.284 207.721 187.032 207.208C187.78 206.695 188.701 206.499 189.592 206.665L196.484 207.946L195.691 211.277L195.234 214.669L188.342 213.388ZM194.828 197.205C193.937 197.039 193.148 196.526 192.634 195.778C192.121 195.031 191.926 194.11 192.092 193.218C192.257 192.327 192.771 191.537 193.518 191.024C194.266 190.511 195.187 190.316 196.078 190.481L206.163 192.356C204.23 194.153 202.466 196.155 200.98 198.348L194.828 197.205Z" fill="url(#paint2_linear_171_105)"/>
</g>
<defs>
<filter id="filter0_d_171_105" x="160.957" y="134.957" width="168.899" height="168.899" filterUnits="userSpaceOnUse" color-interpolation-filters="sRGB">
<feFlood flood-opacity="0" result="BackgroundImageFix"/>
<feColorMatrix in="SourceAlpha" type="matrix" values="0 0 0 0 0 0 0 0 0 0 0 0 0 0 0 0 0 0 127 0" result="hardAlpha"/>
<feOffset dx="26" dy="4"/>
<feGaussianBlur stdDeviation="14.35"/>
<feComposite in2="hardAlpha" operator="out"/>
<feColorMatrix type="matrix" values="0 0 0 0 0 0 0 0 0 0.268237 0 0 0 0 0.670592 0 0 0 0.1 0"/>
<feBlend mode="normal" in2="BackgroundImageFix" result="effect1_dropShadow_171_105"/>
<feBlend mode="normal" in="SourceGraphic" in2="effect1_dropShadow_171_105" result="shape"/>
</filter>
<filter id="filter1_d_171_105" x="0.057373" y="0.0573425" width="438.699" height="438.699" filterUnits="userSpaceOnUse" color-interpolation-filters="sRGB">
<feFlood flood-opacity="0" result="BackgroundImageFix"/>
<feColorMatrix in="SourceAlpha" type="matrix" values="0 0 0 0 0 0 0 0 0 0 0 0 0 0 0 0 0 0 127 0" result="hardAlpha"/>
<feOffset dy="4"/>
<feGaussianBlur stdDeviation="81.8"/>
<feComposite in2="hardAlpha" operator="out"/>
<feColorMatrix type="matrix" values="0 0 0 0 0.115807 0 0 0 0 0.734742 0 0 0 0 1 0 0 0 0.1 0"/>
<feBlend mode="normal" in2="BackgroundImageFix" result="effect1_dropShadow_171_105"/>
<feBlend mode="normal" in="SourceGraphic" in2="effect1_dropShadow_171_105" result="shape"/>
</filter>
<radialGradient id="paint0_radial_171_105" cx="0" cy="0" r="1" gradientUnits="userSpaceOnUse" gradientTransform="translate(229.235 207.238) rotate(39.5726) scale(63.8771)">
<stop stop-color="#FFFCFC"/>
<stop offset="1" stop-color="#F3F3F3"/>
</radialGradient>
<linearGradient id="paint1_linear_171_105" x1="179.997" y1="207.238" x2="278.472" y2="207.238" gradientUnits="userSpaceOnUse">
<stop stop-color="#0044AB"/>
<stop offset="1" stop-color="#1EBBFF"/>
</linearGradient>
<linearGradient id="paint2_linear_171_105" x1="186.746" y1="184.56" x2="253.764" y2="244.431" gradientUnits="userSpaceOnUse">
<stop stop-color="#0044AB"/>
<stop offset="1" stop-color="#1EBBFF"/>
</linearGradient>
</defs>
</svg>
