<svg width="182" height="231" viewBox="0 0 182 231" fill="none" xmlns="http://www.w3.org/2000/svg">
<g filter="url(#filter0_d_171_77)">
<path d="M57.6923 48.7848L91.8472 155.147C95.6498 166.988 105.857 171.063 114.702 168.223C122.769 165.632 129.816 157.19 125.671 144.285L91.767 38.7031C88.2604 27.7833 78.0076 23.5666 69.1624 26.407C60.3171 29.2474 54.6639 39.354 57.6923 48.7848ZM30.794 116.948L47.621 169.349C51.4463 181.261 61.7723 185.22 70.4761 182.425C78.5429 179.834 85.5894 171.392 81.4452 158.487L64.8687 106.866C61.3621 95.9462 51.1093 91.7294 42.2641 94.5698C33.4188 97.4102 27.7656 107.517 30.794 116.948ZM15.3885 162.804C24.7291 159.804 34.737 164.96 37.7199 174.249C39.1632 178.743 38.7656 183.626 36.6146 187.823C34.4635 192.02 30.7352 195.186 26.2498 196.627C21.7644 198.067 16.8894 197.663 12.6972 195.503C8.50499 193.344 5.33897 189.605 3.89566 185.111C0.912794 175.822 6.04794 165.803 15.3885 162.804Z" fill="black"/>
<path d="M57.6923 48.7848L91.8472 155.147C95.6498 166.988 105.857 171.063 114.702 168.223C122.769 165.632 129.816 157.19 125.671 144.285L91.767 38.7031C88.2604 27.7833 78.0076 23.5666 69.1624 26.407C60.3171 29.2474 54.6639 39.354 57.6923 48.7848ZM30.794 116.948L47.621 169.349C51.4463 181.261 61.7723 185.22 70.4761 182.425C78.5429 179.834 85.5894 171.392 81.4452 158.487L64.8687 106.866C61.3621 95.9462 51.1093 91.7294 42.2641 94.5698C33.4188 97.4102 27.7656 107.517 30.794 116.948ZM15.3885 162.804C24.7291 159.804 34.737 164.96 37.7199 174.249C39.1632 178.743 38.7656 183.626 36.6146 187.823C34.4635 192.02 30.7352 195.186 26.2498 196.627C21.7644 198.067 16.8894 197.663 12.6972 195.503C8.50499 193.344 5.33897 189.605 3.89566 185.111C0.912794 175.822 6.04794 165.803 15.3885 162.804Z" fill="url(#paint0_linear_171_77)"/>
</g>
<defs>
<filter id="filter0_d_171_77" x="0.347607" y="0.84663" width="181.249" height="229.329" filterUnits="userSpaceOnUse" color-interpolation-filters="sRGB">
<feFlood flood-opacity="0" result="BackgroundImageFix"/>
<feColorMatrix in="SourceAlpha" type="matrix" values="0 0 0 0 0 0 0 0 0 0 0 0 0 0 0 0 0 0 127 0" result="hardAlpha"/>
<feOffset dx="26" dy="4"/>
<feGaussianBlur stdDeviation="14.35"/>
<feComposite in2="hardAlpha" operator="out"/>
<feColorMatrix type="matrix" values="0 0 0 0 0 0 0 0 0 0.268237 0 0 0 0 0.670592 0 0 0 0.1 0"/>
<feBlend mode="normal" in2="BackgroundImageFix" result="effect1_dropShadow_171_77"/>
<feBlend mode="normal" in="SourceGraphic" in2="effect1_dropShadow_171_77" result="shape"/>
</filter>
<linearGradient id="paint0_linear_171_77" x1="-33.9365" y1="67.2976" x2="133.556" y2="76.1527" gradientUnits="userSpaceOnUse">
<stop stop-color="#0044AB"/>
<stop offset="1" stop-color="#1EBBFF"/>
</linearGradient>
</defs>
</svg>
