<svg width="160" height="200" viewBox="0 0 160 200" fill="none" xmlns="http://www.w3.org/2000/svg">
<g filter="url(#filter0_d_171_60)">
<path d="M48.0372 44.4013L76.0601 131.667C79.18 141.383 87.5547 144.726 94.8119 142.396C101.43 140.271 107.212 133.344 103.812 122.756L75.9943 36.1297C73.1172 27.1704 64.7052 23.7107 57.448 26.0411C50.1908 28.3716 45.5525 36.6637 48.0372 44.4013ZM25.9681 100.327L39.774 143.32C42.9126 153.093 51.3847 156.341 58.5258 154.048C65.1444 151.923 70.9257 144.996 67.5256 134.408L53.9252 92.0549C51.0481 83.0956 42.6361 79.6359 35.3789 81.9664C28.1216 84.2968 23.4833 92.589 25.9681 100.327ZM13.3284 137.95C20.9921 135.489 29.2032 139.719 31.6505 147.34C32.8347 151.028 32.5085 155.034 30.7436 158.477C28.9788 161.92 25.9198 164.519 22.2397 165.7C18.5596 166.882 14.5599 166.551 11.1203 164.779C7.68073 163.007 5.08313 159.939 3.89894 156.252C1.45161 148.631 5.66481 140.411 13.3284 137.95Z" fill="black"/>
<path d="M48.0372 44.4013L76.0601 131.667C79.18 141.383 87.5547 144.726 94.8119 142.396C101.43 140.271 107.212 133.344 103.812 122.756L75.9943 36.1297C73.1172 27.1704 64.7052 23.7107 57.448 26.0411C50.1908 28.3716 45.5525 36.6637 48.0372 44.4013ZM25.9681 100.327L39.774 143.32C42.9126 153.093 51.3847 156.341 58.5258 154.048C65.1444 151.923 70.9257 144.996 67.5256 134.408L53.9252 92.0549C51.0481 83.0956 42.6361 79.6359 35.3789 81.9664C28.1216 84.2968 23.4833 92.589 25.9681 100.327ZM13.3284 137.95C20.9921 135.489 29.2032 139.719 31.6505 147.34C32.8347 151.028 32.5085 155.034 30.7436 158.477C28.9788 161.92 25.9198 164.519 22.2397 165.7C18.5596 166.882 14.5599 166.551 11.1203 164.779C7.68073 163.007 5.08313 159.939 3.89894 156.252C1.45161 148.631 5.66481 140.411 13.3284 137.95Z" fill="url(#paint0_linear_171_60)"/>
</g>
<defs>
<filter id="filter0_d_171_60" x="0.503155" y="0.635265" width="159.014" height="198.462" filterUnits="userSpaceOnUse" color-interpolation-filters="sRGB">
<feFlood flood-opacity="0" result="BackgroundImageFix"/>
<feColorMatrix in="SourceAlpha" type="matrix" values="0 0 0 0 0 0 0 0 0 0 0 0 0 0 0 0 0 0 127 0" result="hardAlpha"/>
<feOffset dx="26" dy="4"/>
<feGaussianBlur stdDeviation="14.35"/>
<feComposite in2="hardAlpha" operator="out"/>
<feColorMatrix type="matrix" values="0 0 0 0 0 0 0 0 0 0.268237 0 0 0 0 0.670592 0 0 0 0.1 0"/>
<feBlend mode="normal" in2="BackgroundImageFix" result="effect1_dropShadow_171_60"/>
<feBlend mode="normal" in="SourceGraphic" in2="effect1_dropShadow_171_60" result="shape"/>
</filter>
<linearGradient id="paint0_linear_171_60" x1="-27.141" y1="59.5904" x2="110.281" y2="66.8557" gradientUnits="userSpaceOnUse">
<stop stop-color="#0044AB"/>
<stop offset="1" stop-color="#1EBBFF"/>
</linearGradient>
</defs>
</svg>
