<svg width="121" height="121" viewBox="0 0 121 121" fill="none" xmlns="http://www.w3.org/2000/svg">
<g filter="url(#filter0_d_171_64)">
<path d="M43.9629 86.3969C43.0658 86.6758 42.1139 86.9437 41.8481 86.9916C41.4584 87.0655 41.0706 87.1492 40.6852 87.2427C40.2432 87.3456 39.7974 87.4313 39.3489 87.4998C37.2562 87.7969 37.1039 87.8129 35.4498 87.8657C33.9287 87.916 31.0106 87.7497 29.9505 87.5543C29.6597 87.4995 29.3966 87.4683 29.3649 87.4825C29.3331 87.4967 28.6512 87.3632 27.8486 87.1865C22.7448 86.0612 18.3257 83.9014 14.3487 80.5863C13.665 80.0171 13.0838 79.501 13.0566 79.4401C13.0298 79.3801 12.8912 79.2429 12.7501 79.1384C12.4578 78.9206 11.9469 78.3982 11.4714 77.8349C11.2684 77.5959 11.0541 77.3669 10.8292 77.1484C10.6499 76.9815 10.4677 76.7623 10.4225 76.6612C10.3771 76.5596 10.1423 76.2683 9.8998 76.0115C9.65833 75.757 9.41304 75.4387 9.35346 75.3053C9.29428 75.1728 9.00584 74.7519 8.71132 74.3702C7.98793 73.4264 6.49806 70.81 5.81306 69.2767C5.12887 67.7451 4.17427 64.8897 3.95414 63.7215C3.86574 63.2472 3.74134 62.7428 3.67736 62.5996C3.61318 62.4559 3.55231 62.1454 3.54066 61.909C3.53165 61.6725 3.47363 61.2663 3.41411 61.0056C3.35637 60.7442 3.28392 60.2816 3.25521 59.9733L3.17417 59.0829C3.10944 58.4176 3.07062 57.8476 3.07138 57.6186C3.07302 57.4901 3.07068 56.9693 3.06782 56.4605C3.06346 55.6383 3.13314 54.053 3.20932 53.2056C3.23664 52.8954 3.25222 52.7896 3.47809 51.2859C3.83432 48.8998 4.82852 45.6848 5.97895 43.1957C6.38425 42.3183 7.8516 39.6409 7.95141 39.5963C7.97916 39.5839 8.13243 39.3646 8.29325 39.108C8.71576 38.435 9.15383 37.8281 9.75198 37.0975C9.96751 36.8371 10.1779 36.5725 10.3831 36.3039C10.4779 36.1735 10.6682 35.9565 11.6517 34.8567C11.8685 34.6149 12.1111 34.3745 12.8207 33.7047C12.9772 33.5575 13.2886 33.2547 13.5098 33.0361C13.7331 32.8172 14.0109 32.5943 14.1282 32.5419C14.2437 32.4903 14.5116 32.274 14.7227 32.0605C14.9333 31.8467 15.3457 31.5261 15.6413 31.3478C15.9364 31.172 16.3114 30.8997 16.4751 30.7445C16.638 30.5923 17.1277 30.2704 17.5632 30.0302C18.129 29.7134 18.6862 29.3813 19.234 29.0342C20.3583 28.3204 22.9738 27.1519 24.2431 26.7964C24.8414 26.6259 25.4353 26.4403 26.0243 26.2396C26.4666 26.0844 27.0502 25.9306 27.3224 25.897C27.5938 25.8616 28.0482 25.766 28.3287 25.6799C28.6103 25.5965 29.1071 25.5067 29.4333 25.4822C29.7613 25.4592 30.1176 25.3988 30.2277 25.3496C30.3378 25.3004 30.5926 25.2602 30.793 25.263C30.9944 25.2632 31.4055 25.2304 31.7084 25.1896C32.0102 25.1514 32.5372 25.1066 32.8837 25.0925C33.2277 25.0789 33.6881 25.0579 33.9063 25.0442C34.3089 25.02 37.4247 25.1565 37.8681 25.2189C41.4624 25.7161 43.4201 26.2154 46.2616 27.3555C49.6884 28.7313 52.2755 30.3437 55.3769 33.0331C55.596 33.223 55.9255 33.5015 56.1093 33.6497C56.2923 33.801 56.4744 33.9924 56.512 34.0765C56.55 34.1615 56.7445 34.3807 56.9456 34.5641C57.4916 35.0627 58.0368 35.6642 58.3861 36.154C58.5577 36.3941 58.8035 36.6762 58.9317 36.7805C59.0602 36.8842 59.2928 37.1899 59.4496 37.4554C59.6057 37.7207 59.903 38.1376 60.106 38.3803C61.2685 39.7567 63.5754 44.3113 64.2191 46.4939C64.4106 47.1423 64.6484 47.9235 64.7475 48.2293C64.918 48.7528 65.2311 50.1629 65.3937 51.1323L65.5718 52.156C65.9244 54.123 65.9674 57.1301 65.6867 60.0553C65.576 61.2161 64.9368 64.5071 64.7359 64.949C64.7175 64.9884 64.6473 65.2302 64.5795 65.4822C64.5127 65.7365 64.2638 66.4748 64.0285 67.1211C62.9915 69.9686 61.9879 71.8912 60.0185 74.8015C59.7851 75.1468 57.6421 77.7105 57.2226 78.1476C57.0043 78.3728 56.6407 78.7511 56.4146 78.9864C56.1896 79.2195 55.9249 79.4489 55.8294 79.4937C55.7338 79.538 55.5189 79.7371 55.3514 79.9354C55.1843 80.1335 54.9515 80.3406 54.8319 80.3962C54.7137 80.4511 54.4035 80.6906 54.1425 80.9285C53.8828 81.168 53.5071 81.4685 53.3082 81.5966C53.1101 81.7253 52.6947 82.0199 52.3826 82.2516C52.0711 82.4832 51.0923 83.1008 50.2103 83.6226C48.2448 84.7911 46.1477 85.7224 43.9629 86.3969ZM43.5685 79.8621C43.656 79.6974 43.7011 79.4271 43.6725 79.2643C43.6085 78.9047 44.9659 47.0268 45.0647 46.5907C45.1477 46.2224 44.9694 45.7716 44.711 45.7003C44.5742 45.6609 43.3173 46.1908 39.9961 47.6809C37.5056 48.7999 35.4105 49.738 35.3413 49.7668C35.2385 49.8085 34.4733 48.152 31.2962 41.0125C29.1406 36.1681 27.3285 32.1731 27.2688 32.1332C27.2087 32.0924 27.052 32.1081 26.919 32.1675C26.732 32.2511 26.6807 32.3707 26.6912 32.7031C26.7077 33.3228 26.6382 34.7777 26.251 41.7502C26.1701 43.1974 26.091 44.6447 26.0137 46.0922C25.9486 47.3357 25.8422 49.2896 25.78 50.4326C25.6109 53.5056 25.4451 56.5788 25.2827 59.6523C25.0015 64.9512 24.964 65.5848 24.9199 65.7409C24.8356 66.0449 24.9645 66.6014 25.1539 66.7477C25.3267 66.8821 25.5174 66.8054 30.175 64.7161C32.838 63.5227 35.0417 62.5549 35.0737 62.5653C35.1632 62.601 42.5719 79.2465 42.686 79.6712C42.7607 79.9503 42.85 80.0757 43.0223 80.1416C43.3203 80.2559 43.3759 80.2289 43.5685 79.8621Z" fill="black"/>
<path d="M43.9629 86.3969C43.0658 86.6758 42.1139 86.9437 41.8481 86.9916C41.4584 87.0655 41.0706 87.1492 40.6852 87.2427C40.2432 87.3456 39.7974 87.4313 39.3489 87.4998C37.2562 87.7969 37.1039 87.8129 35.4498 87.8657C33.9287 87.916 31.0106 87.7497 29.9505 87.5543C29.6597 87.4995 29.3966 87.4683 29.3649 87.4825C29.3331 87.4967 28.6512 87.3632 27.8486 87.1865C22.7448 86.0612 18.3257 83.9014 14.3487 80.5863C13.665 80.0171 13.0838 79.501 13.0566 79.4401C13.0298 79.3801 12.8912 79.2429 12.7501 79.1384C12.4578 78.9206 11.9469 78.3982 11.4714 77.8349C11.2684 77.5959 11.0541 77.3669 10.8292 77.1484C10.6499 76.9815 10.4677 76.7623 10.4225 76.6612C10.3771 76.5596 10.1423 76.2683 9.8998 76.0115C9.65833 75.757 9.41304 75.4387 9.35346 75.3053C9.29428 75.1728 9.00584 74.7519 8.71132 74.3702C7.98793 73.4264 6.49806 70.81 5.81306 69.2767C5.12887 67.7451 4.17427 64.8897 3.95414 63.7215C3.86574 63.2472 3.74134 62.7428 3.67736 62.5996C3.61318 62.4559 3.55231 62.1454 3.54066 61.909C3.53165 61.6725 3.47363 61.2663 3.41411 61.0056C3.35637 60.7442 3.28392 60.2816 3.25521 59.9733L3.17417 59.0829C3.10944 58.4176 3.07062 57.8476 3.07138 57.6186C3.07302 57.4901 3.07068 56.9693 3.06782 56.4605C3.06346 55.6383 3.13314 54.053 3.20932 53.2056C3.23664 52.8954 3.25222 52.7896 3.47809 51.2859C3.83432 48.8998 4.82852 45.6848 5.97895 43.1957C6.38425 42.3183 7.8516 39.6409 7.95141 39.5963C7.97916 39.5839 8.13243 39.3646 8.29325 39.108C8.71576 38.435 9.15383 37.8281 9.75198 37.0975C9.96751 36.8371 10.1779 36.5725 10.3831 36.3039C10.4779 36.1735 10.6682 35.9565 11.6517 34.8567C11.8685 34.6149 12.1111 34.3745 12.8207 33.7047C12.9772 33.5575 13.2886 33.2547 13.5098 33.0361C13.7331 32.8172 14.0109 32.5943 14.1282 32.5419C14.2437 32.4903 14.5116 32.274 14.7227 32.0605C14.9333 31.8467 15.3457 31.5261 15.6413 31.3478C15.9364 31.172 16.3114 30.8997 16.4751 30.7445C16.638 30.5923 17.1277 30.2704 17.5632 30.0302C18.129 29.7134 18.6862 29.3813 19.234 29.0342C20.3583 28.3204 22.9738 27.1519 24.2431 26.7964C24.8414 26.6259 25.4353 26.4403 26.0243 26.2396C26.4666 26.0844 27.0502 25.9306 27.3224 25.897C27.5938 25.8616 28.0482 25.766 28.3287 25.6799C28.6103 25.5965 29.1071 25.5067 29.4333 25.4822C29.7613 25.4592 30.1176 25.3988 30.2277 25.3496C30.3378 25.3004 30.5926 25.2602 30.793 25.263C30.9944 25.2632 31.4055 25.2304 31.7084 25.1896C32.0102 25.1514 32.5372 25.1066 32.8837 25.0925C33.2277 25.0789 33.6881 25.0579 33.9063 25.0442C34.3089 25.02 37.4247 25.1565 37.8681 25.2189C41.4624 25.7161 43.4201 26.2154 46.2616 27.3555C49.6884 28.7313 52.2755 30.3437 55.3769 33.0331C55.596 33.223 55.9255 33.5015 56.1093 33.6497C56.2923 33.801 56.4744 33.9924 56.512 34.0765C56.55 34.1615 56.7445 34.3807 56.9456 34.5641C57.4916 35.0627 58.0368 35.6642 58.3861 36.154C58.5577 36.3941 58.8035 36.6762 58.9317 36.7805C59.0602 36.8842 59.2928 37.1899 59.4496 37.4554C59.6057 37.7207 59.903 38.1376 60.106 38.3803C61.2685 39.7567 63.5754 44.3113 64.2191 46.4939C64.4106 47.1423 64.6484 47.9235 64.7475 48.2293C64.918 48.7528 65.2311 50.1629 65.3937 51.1323L65.5718 52.156C65.9244 54.123 65.9674 57.1301 65.6867 60.0553C65.576 61.2161 64.9368 64.5071 64.7359 64.949C64.7175 64.9884 64.6473 65.2302 64.5795 65.4822C64.5127 65.7365 64.2638 66.4748 64.0285 67.1211C62.9915 69.9686 61.9879 71.8912 60.0185 74.8015C59.7851 75.1468 57.6421 77.7105 57.2226 78.1476C57.0043 78.3728 56.6407 78.7511 56.4146 78.9864C56.1896 79.2195 55.9249 79.4489 55.8294 79.4937C55.7338 79.538 55.5189 79.7371 55.3514 79.9354C55.1843 80.1335 54.9515 80.3406 54.8319 80.3962C54.7137 80.4511 54.4035 80.6906 54.1425 80.9285C53.8828 81.168 53.5071 81.4685 53.3082 81.5966C53.1101 81.7253 52.6947 82.0199 52.3826 82.2516C52.0711 82.4832 51.0923 83.1008 50.2103 83.6226C48.2448 84.7911 46.1477 85.7224 43.9629 86.3969ZM43.5685 79.8621C43.656 79.6974 43.7011 79.4271 43.6725 79.2643C43.6085 78.9047 44.9659 47.0268 45.0647 46.5907C45.1477 46.2224 44.9694 45.7716 44.711 45.7003C44.5742 45.6609 43.3173 46.1908 39.9961 47.6809C37.5056 48.7999 35.4105 49.738 35.3413 49.7668C35.2385 49.8085 34.4733 48.152 31.2962 41.0125C29.1406 36.1681 27.3285 32.1731 27.2688 32.1332C27.2087 32.0924 27.052 32.1081 26.919 32.1675C26.732 32.2511 26.6807 32.3707 26.6912 32.7031C26.7077 33.3228 26.6382 34.7777 26.251 41.7502C26.1701 43.1974 26.091 44.6447 26.0137 46.0922C25.9486 47.3357 25.8422 49.2896 25.78 50.4326C25.6109 53.5056 25.4451 56.5788 25.2827 59.6523C25.0015 64.9512 24.964 65.5848 24.9199 65.7409C24.8356 66.0449 24.9645 66.6014 25.1539 66.7477C25.3267 66.8821 25.5174 66.8054 30.175 64.7161C32.838 63.5227 35.0417 62.5549 35.0737 62.5653C35.1632 62.601 42.5719 79.2465 42.686 79.6712C42.7607 79.9503 42.85 80.0757 43.0223 80.1416C43.3203 80.2559 43.3759 80.2289 43.5685 79.8621Z" fill="url(#paint0_linear_171_64)"/>
</g>
<defs>
<filter id="filter0_d_171_64" x="0.367626" y="0.341335" width="120.203" height="120.233" filterUnits="userSpaceOnUse" color-interpolation-filters="sRGB">
<feFlood flood-opacity="0" result="BackgroundImageFix"/>
<feColorMatrix in="SourceAlpha" type="matrix" values="0 0 0 0 0 0 0 0 0 0 0 0 0 0 0 0 0 0 127 0" result="hardAlpha"/>
<feOffset dx="26" dy="4"/>
<feGaussianBlur stdDeviation="14.35"/>
<feComposite in2="hardAlpha" operator="out"/>
<feColorMatrix type="matrix" values="0 0 0 0 0 0 0 0 0 0.268237 0 0 0 0 0.670592 0 0 0 0.1 0"/>
<feBlend mode="normal" in2="BackgroundImageFix" result="effect1_dropShadow_171_64"/>
<feBlend mode="normal" in="SourceGraphic" in2="effect1_dropShadow_171_64" result="shape"/>
</filter>
<linearGradient id="paint0_linear_171_64" x1="-5.72523" y1="43.4487" x2="74.5091" y2="43.0498" gradientUnits="userSpaceOnUse">
<stop stop-color="#0044AB"/>
<stop offset="1" stop-color="#1EBBFF"/>
</linearGradient>
</defs>
</svg>
