<svg width="188" height="188" viewBox="0 0 188 188" fill="none" xmlns="http://www.w3.org/2000/svg">
<g filter="url(#filter0_d_171_109)">
<path fill-rule="evenodd" clip-rule="evenodd" d="M103.169 150.658L103.107 150.694L102.76 151.057L102.649 151.124L102.557 151.131L102.057 151.076C101.986 151.079 101.942 151.106 101.925 151.157L101.923 151.226L102.749 153.816L102.822 153.925L102.91 153.981L103.691 154.197L103.789 154.188L103.852 154.138L104.312 153.471L104.349 153.35L104.336 153.24L103.309 150.729C103.27 150.671 103.223 150.648 103.169 150.658ZM104.505 149.41L104.432 149.45L103.53 150.406L103.492 150.487L103.497 150.559L104.537 153.086L104.593 153.147L104.656 153.171L106.057 153.29C106.139 153.283 106.191 153.246 106.212 153.18L106.206 153.088L104.672 149.498C104.626 149.433 104.57 149.404 104.505 149.41ZM100.243 150.971C100.211 150.965 100.178 150.971 100.15 150.989C100.123 151.006 100.103 151.034 100.095 151.066L100.09 151.162L101.218 154.9C101.247 154.97 101.299 155.005 101.371 155.006L101.456 154.962L102.454 153.971L102.496 153.902L102.496 153.827L101.666 151.225L101.622 151.16L101.54 151.122L100.243 150.971Z" fill="black"/>
<path fill-rule="evenodd" clip-rule="evenodd" d="M103.169 150.658L103.107 150.694L102.76 151.057L102.649 151.124L102.557 151.131L102.057 151.076C101.986 151.079 101.942 151.106 101.925 151.157L101.923 151.226L102.749 153.816L102.822 153.925L102.91 153.981L103.691 154.197L103.789 154.188L103.852 154.138L104.312 153.471L104.349 153.35L104.336 153.24L103.309 150.729C103.27 150.671 103.223 150.648 103.169 150.658ZM104.505 149.41L104.432 149.45L103.53 150.406L103.492 150.487L103.497 150.559L104.537 153.086L104.593 153.147L104.656 153.171L106.057 153.29C106.139 153.283 106.191 153.246 106.212 153.18L106.206 153.088L104.672 149.498C104.626 149.433 104.57 149.404 104.505 149.41ZM100.243 150.971C100.211 150.965 100.178 150.971 100.15 150.989C100.123 151.006 100.103 151.034 100.095 151.066L100.09 151.162L101.218 154.9C101.247 154.97 101.299 155.005 101.371 155.006L101.456 154.962L102.454 153.971L102.496 153.902L102.496 153.827L101.666 151.225L101.622 151.16L101.54 151.122L100.243 150.971Z" fill="url(#paint0_linear_171_109)"/>
<path fill-rule="evenodd" clip-rule="evenodd" d="M49.7877 27.7858C51.8223 26.0495 54.3533 25.0001 57.0196 24.7873L58.1651 24.7427L105.623 25.2331C108.029 25.2579 110.379 25.9661 112.398 27.275C114.417 28.5839 116.023 30.4398 117.028 32.6262L117.427 33.5956L129.052 65.5957C132.564 75.2646 133.4 85.7023 131.473 95.8071C129.545 105.912 124.925 115.309 118.101 123.006L116.815 124.412L100.437 141.688C99.535 142.639 98.4465 143.393 97.2396 143.903C96.0327 144.414 94.7335 144.669 93.4232 144.655L92.4296 144.597L68.7819 141.86C58.5628 140.678 48.8527 136.758 40.6764 130.515C32.5001 124.271 26.1612 115.937 22.3287 106.39L21.6486 104.611L10.0243 72.6105C9.20312 70.3499 9.04097 67.9025 9.55671 65.5532C10.0725 63.204 11.2449 61.0495 12.9375 59.3407L13.7095 58.6212L49.7877 27.7858ZM58.0361 37.4401L21.958 68.2755L33.5822 100.276C36.3026 107.764 40.9862 114.383 47.1426 119.44C53.2989 124.498 60.7017 127.807 68.5758 129.021L70.2446 129.246L92.3129 131.8L107.597 115.677C113.08 109.895 116.907 102.745 118.677 94.9753C120.447 87.2061 120.096 79.1037 117.66 71.5168L117.118 69.9307L105.494 37.9306L58.0361 37.4401ZM62.574 59.0802C63.9701 57.8885 65.7009 57.1583 67.5287 56.9899L68.4453 56.9474L87.4283 57.1435C89.0935 57.1609 90.7204 57.6457 92.1234 58.5428C93.5264 59.4399 94.6492 60.7131 95.3637 62.2174L95.6878 62.998L100.337 75.7968C101.948 80.232 102.353 85.0153 101.511 89.6583C100.669 94.3013 98.61 98.6376 95.544 102.225L94.6313 103.245L88.0761 110.152C87.3665 110.901 86.5122 111.498 85.5648 111.907C84.6174 112.317 83.5967 112.529 82.5648 112.532L81.6699 112.485L72.2139 111.388C67.5272 110.846 63.0684 109.069 59.2925 106.24C55.5167 103.411 52.5592 99.6312 50.7218 95.2856L50.2157 94.0038L45.5664 81.2049C44.9981 79.64 44.8809 77.9469 45.228 76.3186C45.5751 74.6903 46.3726 73.1922 47.5296 71.995L48.1427 71.4143L62.574 59.0802ZM69.7406 69.661L58.4017 79.3521L62.1515 89.6748C62.9762 91.943 64.3746 93.9588 66.2103 95.5256C68.046 97.0925 70.2565 98.1568 72.6261 98.615L73.6706 98.7759L80.6084 99.5787L85.4134 94.5102C87.075 92.7576 88.2538 90.6041 88.8347 88.2599C89.4155 85.9157 89.3786 83.461 88.7274 81.1353L88.4034 80.1318L84.6558 69.8152L69.7406 69.661Z" fill="black"/>
<path fill-rule="evenodd" clip-rule="evenodd" d="M49.7877 27.7858C51.8223 26.0495 54.3533 25.0001 57.0196 24.7873L58.1651 24.7427L105.623 25.2331C108.029 25.2579 110.379 25.9661 112.398 27.275C114.417 28.5839 116.023 30.4398 117.028 32.6262L117.427 33.5956L129.052 65.5957C132.564 75.2646 133.4 85.7023 131.473 95.8071C129.545 105.912 124.925 115.309 118.101 123.006L116.815 124.412L100.437 141.688C99.535 142.639 98.4465 143.393 97.2396 143.903C96.0327 144.414 94.7335 144.669 93.4232 144.655L92.4296 144.597L68.7819 141.86C58.5628 140.678 48.8527 136.758 40.6764 130.515C32.5001 124.271 26.1612 115.937 22.3287 106.39L21.6486 104.611L10.0243 72.6105C9.20312 70.3499 9.04097 67.9025 9.55671 65.5532C10.0725 63.204 11.2449 61.0495 12.9375 59.3407L13.7095 58.6212L49.7877 27.7858ZM58.0361 37.4401L21.958 68.2755L33.5822 100.276C36.3026 107.764 40.9862 114.383 47.1426 119.44C53.2989 124.498 60.7017 127.807 68.5758 129.021L70.2446 129.246L92.3129 131.8L107.597 115.677C113.08 109.895 116.907 102.745 118.677 94.9753C120.447 87.2061 120.096 79.1037 117.66 71.5168L117.118 69.9307L105.494 37.9306L58.0361 37.4401ZM62.574 59.0802C63.9701 57.8885 65.7009 57.1583 67.5287 56.9899L68.4453 56.9474L87.4283 57.1435C89.0935 57.1609 90.7204 57.6457 92.1234 58.5428C93.5264 59.4399 94.6492 60.7131 95.3637 62.2174L95.6878 62.998L100.337 75.7968C101.948 80.232 102.353 85.0153 101.511 89.6583C100.669 94.3013 98.61 98.6376 95.544 102.225L94.6313 103.245L88.0761 110.152C87.3665 110.901 86.5122 111.498 85.5648 111.907C84.6174 112.317 83.5967 112.529 82.5648 112.532L81.6699 112.485L72.2139 111.388C67.5272 110.846 63.0684 109.069 59.2925 106.24C55.5167 103.411 52.5592 99.6312 50.7218 95.2856L50.2157 94.0038L45.5664 81.2049C44.9981 79.64 44.8809 77.9469 45.228 76.3186C45.5751 74.6903 46.3726 73.1922 47.5296 71.995L48.1427 71.4143L62.574 59.0802ZM69.7406 69.661L58.4017 79.3521L62.1515 89.6748C62.9762 91.943 64.3746 93.9588 66.2103 95.5256C68.046 97.0925 70.2565 98.1568 72.6261 98.615L73.6706 98.7759L80.6084 99.5787L85.4134 94.5102C87.075 92.7576 88.2538 90.6041 88.8347 88.2599C89.4155 85.9157 89.3786 83.461 88.7274 81.1353L88.4034 80.1318L84.6558 69.8152L69.7406 69.661Z" fill="url(#paint1_linear_171_109)"/>
</g>
<defs>
<filter id="filter0_d_171_109" x="6.56135" y="0.042675" width="180.623" height="187.663" filterUnits="userSpaceOnUse" color-interpolation-filters="sRGB">
<feFlood flood-opacity="0" result="BackgroundImageFix"/>
<feColorMatrix in="SourceAlpha" type="matrix" values="0 0 0 0 0 0 0 0 0 0 0 0 0 0 0 0 0 0 127 0" result="hardAlpha"/>
<feOffset dx="26" dy="4"/>
<feGaussianBlur stdDeviation="14.35"/>
<feComposite in2="hardAlpha" operator="out"/>
<feColorMatrix type="matrix" values="0 0 0 0 0 0 0 0 0 0.268237 0 0 0 0 0.670592 0 0 0 0.1 0"/>
<feBlend mode="normal" in2="BackgroundImageFix" result="effect1_dropShadow_171_109"/>
<feBlend mode="normal" in="SourceGraphic" in2="effect1_dropShadow_171_109" result="shape"/>
</filter>
<linearGradient id="paint0_linear_171_109" x1="99.9093" y1="151.298" x2="106.328" y2="152.301" gradientUnits="userSpaceOnUse">
<stop stop-color="#0044AB"/>
<stop offset="1" stop-color="#1EBBFF"/>
</linearGradient>
<linearGradient id="paint1_linear_171_109" x1="2.1431" y1="50.9147" x2="150.338" y2="55.6253" gradientUnits="userSpaceOnUse">
<stop stop-color="#0044AB"/>
<stop offset="1" stop-color="#1EBBFF"/>
</linearGradient>
</defs>
</svg>
